<svg xmlns="http://www.w3.org/2000/svg" width="908" height="374" viewBox="0 0 908 374">
  <title>Sliding-window receptive field across stacked layers</title>
  <defs><marker id="arrow-888888" viewBox="0 0 10 10" refX="8" refY="5" markerWidth="7" markerHeight="7" orient="auto-start-reverse"><path d="M0,0 L10,5 L0,10 z" fill="#888888"/></marker></defs>
  <rect x="0" y="0" width="908" height="374" fill="#ffffff"/>
  <text x="20" y="26" font-family="Helvetica, Arial, sans-serif" font-size="18" font-weight="bold" fill="#111111" text-anchor="start">Target position&#x27;s receptive field, by layer (window W = 4)</text>
  <rect x="40" y="50" width="34" height="34" rx="3" fill="#f0f0f0" stroke="#cccccc" stroke-width="1"/>
  <rect x="78" y="50" width="34" height="34" rx="3" fill="#f0f0f0" stroke="#cccccc" stroke-width="1"/>
  <rect x="116" y="50" width="34" height="34" rx="3" fill="#f0f0f0" stroke="#cccccc" stroke-width="1"/>
  <rect x="154" y="50" width="34" height="34" rx="3" fill="#f0f0f0" stroke="#cccccc" stroke-width="1"/>
  <rect x="192" y="50" width="34" height="34" rx="3" fill="#f0f0f0" stroke="#cccccc" stroke-width="1"/>
  <rect x="230" y="50" width="34" height="34" rx="3" fill="#f0f0f0" stroke="#cccccc" stroke-width="1"/>
  <rect x="268" y="50" width="34" height="34" rx="3" fill="#f0f0f0" stroke="#cccccc" stroke-width="1"/>
  <rect x="306" y="50" width="34" height="34" rx="3" fill="#f0f0f0" stroke="#cccccc" stroke-width="1"/>
  <rect x="344" y="50" width="34" height="34" rx="3" fill="#f0f0f0" stroke="#cccccc" stroke-width="1"/>
  <rect x="382" y="50" width="34" height="34" rx="3" fill="#0072B2" stroke="#333333" stroke-width="2"/>
  <rect x="420" y="50" width="34" height="34" rx="3" fill="#0072B2" stroke="#333333" stroke-width="2"/>
  <rect x="458" y="50" width="34" height="34" rx="3" fill="#0072B2" stroke="#333333" stroke-width="2"/>
  <rect x="496" y="50" width="34" height="34" rx="3" fill="#0072B2" stroke="#333333" stroke-width="2"/>
  <rect x="534" y="50" width="34" height="34" rx="3" fill="#f0f0f0" stroke="#cccccc" stroke-width="1"/>
  <rect x="572" y="50" width="34" height="34" rx="3" fill="#f0f0f0" stroke="#cccccc" stroke-width="1"/>
  <rect x="610" y="50" width="34" height="34" rx="3" fill="#f0f0f0" stroke="#cccccc" stroke-width="1"/>
  <text x="668" y="73.0" font-family="Helvetica, Arial, sans-serif" font-size="16" font-weight="normal" fill="#111111" text-anchor="start">layer 3: direct window (W)</text>
  <rect x="40" y="118" width="34" height="34" rx="3" fill="#f0f0f0" stroke="#cccccc" stroke-width="1"/>
  <rect x="78" y="118" width="34" height="34" rx="3" fill="#f0f0f0" stroke="#cccccc" stroke-width="1"/>
  <rect x="116" y="118" width="34" height="34" rx="3" fill="#f0f0f0" stroke="#cccccc" stroke-width="1"/>
  <rect x="154" y="118" width="34" height="34" rx="3" fill="#f0f0f0" stroke="#cccccc" stroke-width="1"/>
  <rect x="192" y="118" width="34" height="34" rx="3" fill="#f0f0f0" stroke="#cccccc" stroke-width="1"/>
  <rect x="230" y="118" width="34" height="34" rx="3" fill="#0072B2" stroke="#333333" stroke-width="1.5" stroke-dasharray="6,4"/>
  <rect x="268" y="118" width="34" height="34" rx="3" fill="#0072B2" stroke="#333333" stroke-width="1.5" stroke-dasharray="6,4"/>
  <rect x="306" y="118" width="34" height="34" rx="3" fill="#0072B2" stroke="#333333" stroke-width="1.5" stroke-dasharray="6,4"/>
  <rect x="344" y="118" width="34" height="34" rx="3" fill="#0072B2" stroke="#333333" stroke-width="1.5" stroke-dasharray="6,4"/>
  <rect x="382" y="118" width="34" height="34" rx="3" fill="#0072B2" stroke="#333333" stroke-width="1.5" stroke-dasharray="6,4"/>
  <rect x="420" y="118" width="34" height="34" rx="3" fill="#0072B2" stroke="#333333" stroke-width="1.5" stroke-dasharray="6,4"/>
  <rect x="458" y="118" width="34" height="34" rx="3" fill="#0072B2" stroke="#333333" stroke-width="1.5" stroke-dasharray="6,4"/>
  <rect x="496" y="118" width="34" height="34" rx="3" fill="#0072B2" stroke="#333333" stroke-width="1.5" stroke-dasharray="6,4"/>
  <rect x="534" y="118" width="34" height="34" rx="3" fill="#f0f0f0" stroke="#cccccc" stroke-width="1"/>
  <rect x="572" y="118" width="34" height="34" rx="3" fill="#f0f0f0" stroke="#cccccc" stroke-width="1"/>
  <rect x="610" y="118" width="34" height="34" rx="3" fill="#f0f0f0" stroke="#cccccc" stroke-width="1"/>
  <text x="668" y="141.0" font-family="Helvetica, Arial, sans-serif" font-size="16" font-weight="normal" fill="#111111" text-anchor="start">layer 2: indirect reach (2W)</text>
  <rect x="40" y="186" width="34" height="34" rx="3" fill="#f0f0f0" stroke="#cccccc" stroke-width="1"/>
  <rect x="78" y="186" width="34" height="34" rx="3" fill="#0072B2" stroke="#333333" stroke-width="1.5" stroke-dasharray="2,3"/>
  <rect x="116" y="186" width="34" height="34" rx="3" fill="#0072B2" stroke="#333333" stroke-width="1.5" stroke-dasharray="2,3"/>
  <rect x="154" y="186" width="34" height="34" rx="3" fill="#0072B2" stroke="#333333" stroke-width="1.5" stroke-dasharray="2,3"/>
  <rect x="192" y="186" width="34" height="34" rx="3" fill="#0072B2" stroke="#333333" stroke-width="1.5" stroke-dasharray="2,3"/>
  <rect x="230" y="186" width="34" height="34" rx="3" fill="#0072B2" stroke="#333333" stroke-width="1.5" stroke-dasharray="2,3"/>
  <rect x="268" y="186" width="34" height="34" rx="3" fill="#0072B2" stroke="#333333" stroke-width="1.5" stroke-dasharray="2,3"/>
  <rect x="306" y="186" width="34" height="34" rx="3" fill="#0072B2" stroke="#333333" stroke-width="1.5" stroke-dasharray="2,3"/>
  <rect x="344" y="186" width="34" height="34" rx="3" fill="#0072B2" stroke="#333333" stroke-width="1.5" stroke-dasharray="2,3"/>
  <rect x="382" y="186" width="34" height="34" rx="3" fill="#0072B2" stroke="#333333" stroke-width="1.5" stroke-dasharray="2,3"/>
  <rect x="420" y="186" width="34" height="34" rx="3" fill="#0072B2" stroke="#333333" stroke-width="1.5" stroke-dasharray="2,3"/>
  <rect x="458" y="186" width="34" height="34" rx="3" fill="#0072B2" stroke="#333333" stroke-width="1.5" stroke-dasharray="2,3"/>
  <rect x="496" y="186" width="34" height="34" rx="3" fill="#0072B2" stroke="#333333" stroke-width="1.5" stroke-dasharray="2,3"/>
  <rect x="534" y="186" width="34" height="34" rx="3" fill="#f0f0f0" stroke="#cccccc" stroke-width="1"/>
  <rect x="572" y="186" width="34" height="34" rx="3" fill="#f0f0f0" stroke="#cccccc" stroke-width="1"/>
  <rect x="610" y="186" width="34" height="34" rx="3" fill="#f0f0f0" stroke="#cccccc" stroke-width="1"/>
  <text x="668" y="209.0" font-family="Helvetica, Arial, sans-serif" font-size="16" font-weight="normal" fill="#111111" text-anchor="start">layer 1: indirect reach (3W)</text>
  <line x1="513.0" y1="224" x2="513.0" y2="42" stroke="#888888" stroke-width="1" stroke-dasharray="6,4" marker-end="url(#arrow-888888)"/>
  <text x="513.0" y="38" font-family="Helvetica, Arial, sans-serif" font-size="14" font-weight="normal" fill="#555555" text-anchor="middle">target position</text>
  <rect x="40" y="264" width="30" height="22" rx="3" fill="#0072B2" stroke="#333333" stroke-width="2"/>
  <text x="80" y="280" font-family="Helvetica, Arial, sans-serif" font-size="16" font-weight="normal" fill="#111111" text-anchor="start">direct window (this layer&#x27;s own attention)</text>
  <rect x="40" y="296" width="30" height="22" rx="3" fill="#0072B2" stroke="#333333" stroke-width="1.5" stroke-dasharray="6,4"/>
  <text x="80" y="312" font-family="Helvetica, Arial, sans-serif" font-size="16" font-weight="normal" fill="#111111" text-anchor="start">indirect (reached only via an earlier layer)</text>
  <text x="40" y="344" font-family="Helvetica, Arial, sans-serif" font-size="16" font-weight="normal" fill="#555555" text-anchor="start">Stacking layers widens indirect reach; this is not the same as unrestricted global attention.</text>
</svg>
